<svg xmlns="http://www.w3.org/2000/svg" viewBox="0 0 512.59 512.59"><path d="M327.279 57.771s-8.533 13.867-9.6 24.533-32-8.533-32-8.533l-2.133-13.867s1.067-42.667 2.133-42.667c1.067-1.067 13.867-3.2 13.867-3.2l27.733 43.734h0z" fill="#ffd15c"/><path d="M324.079 64.171c-1.067 2.133-2.133 3.2-3.2 5.333l-18.133-28.8 21.333 23.467z" fill="#f5b54c"/><g fill="#ffd15c"><path d="M299.546 26.838s14.933 36.267 34.133 39.467c1.067 0 2.133 0 3.2-1.067s2.133-3.2 0-6.4v-4.267s0-2.133-1.067-2.133c0 0 1.067 0 1.067-2.133v-4.267s5.333 0 4.267-3.2-7.467-8.533-7.467-8.533-1.067-1.067 0-3.2c1.067-3.2-1.067-6.4-1.067-6.4l-10.667-16-17.067-6.4c.001 1.066-17.065 17.066-5.332 24.533z"/><path d="M296.346 31.105s21.333 42.667 39.467 34.133l-34.133-44.8-5.334 10.667z"/></g><path d="M317.679 34.305v6.4h-4.267c0-1.067-1.067-7.467-3.2-9.6-3.2-2.133-9.6-4.267-11.733 1.067s-1.067 22.4-1.067 22.4-10.667 2.133-12.8 6.4c0 0-11.733-25.6-9.6-37.333 1.067-12.8 13.867-20.267 13.867-20.267s10.667-4.267 21.333-3.2c6.4 1.067 11.733 5.333 13.867 10.667v2.133s-11.733-4.267-7.467 1.067c0 1.067 1.067 1.067 1.067 2.133 1.067 2.133 1.067 4.267 1.067 5.333-1.067 5.333-2.133 8.533-1.067 12.8z" fill="#425a6b"/><path d="M313.413 42.838s0 4.267-4.267 2.133-12.8-9.6-8.533-18.133c0 0 4.267-6.4 8.533 2.133s4.267 13.867 4.267 13.867zm-65.067 296.533l2.133 11.733s-8.533 11.733-13.867 14.933-16 16-16 16-17.067 23.467-30.933 34.133c-12.8 11.733-19.2 37.333-19.2 37.333s-24.533-3.2-25.6-16l6.4-6.4s17.067-20.267 20.267-32 24.533-50.133 37.333-55.467c13.867-4.265 39.467-4.265 39.467-4.265zm58.667-17.066l4.267 13.867 6.4 6.4s1.067 2.133 0 4.267-4.267 27.733-1.067 51.2c3.2 22.4 1.067 56.533 1.067 56.533s24.533 12.8 26.667 0c0 0-4.267-23.467-2.133-37.333s6.4-27.733 5.333-48c0 0 2.133-17.067 5.333-21.333s4.267-16 0-22.4c-4.267-5.333-21.333-8.533-21.333-8.533l-24.534 5.332z" fill="#ffd15c"/><path d="M389.146 487.638c0-1.067-1.067-2.133-2.133-2.133-9.6-2.133-16-6.4-24.533-12.8-9.6-7.467-17.067-24.533-17.067-24.533-7.467 6.4-29.867 3.2-29.867 3.2l-6.4 13.867 1.067 2.133 11.733 11.733 59.733 14.933c1.067 0 4.267-1.067 7.467-3.2v-3.2z" fill="#425a6b"/><path d="M389.146 487.638s-18.133 3.2-28.8-3.2c-2.133-1.067-4.267-2.133-6.4-2.133-9.6-1.067-33.067-7.467-40.533-13.867 0 0-5.333-4.267-6.4-2.133 0 0-5.333 4.267-3.2 9.6s19.2 9.6 19.2 9.6 9.6 4.267 21.333 7.467c9.6 2.133 28.8 5.333 38.4 3.2 4.267-2.134 7.467-5.334 6.4-8.534h0z" fill="#e8eae8"/><path d="M176.879 510.038c1.067-1.067 1.067-2.133 0-3.2-5.333-8.533-7.467-14.933-8.533-26.667-2.133-11.733 4.267-28.8 4.267-28.8-9.6 0-23.467-18.133-23.467-18.133l-13.867 4.267-1.067 2.133v16l32 52.267c1.067 1.067 4.267 2.133 7.467 3.2 1.067 0 3.2-1.067 3.2-1.067z" fill="#425a6b"/><path d="M176.879 510.038s-14.933-9.6-18.133-22.4c0-2.133-1.067-4.267-3.2-5.333-5.333-7.467-18.133-27.733-19.2-37.333 0 0 0-6.4-3.2-6.4 0 0-6.4 0-9.6 4.267-2.133 5.333 7.467 20.267 7.467 20.267s4.267 9.6 10.667 20.267c4.267 8.533 17.067 23.467 25.6 28.8 3.199 1.065 7.466-.002 9.599-2.135h0z" fill="#e8eae8"/><path d="M239.813 231.638l-9.6 8.533s-2.133 7.467 2.133 16c3.2 9.6-2.133 20.267-2.133 20.267s-9.6 28.8-9.6 41.6c0 11.733-10.667 25.6-10.667 25.6 14.933 7.467 28.8 9.6 41.6 6.4l32-40.533 27.733 25.6s12.8-16 41.6-11.733c0 0-13.867-39.467-21.333-50.133s-10.667-22.4-19.2-29.867c-8.533-6.401-72.533-11.734-72.533-11.734z" fill="#425a6b"/><path d="M260.079 116.438l8.533 57.6s-20.267-8.533-28.8-16c-4.267-3.2-7.467-5.333-9.6-6.4-4.267-2.133-6.4-6.4-5.333-9.6 0-1.067 0-2.133 1.067-4.267 2.133-6.4 7.467-21.333 11.733-27.733 6.4-5.333 22.4 6.4 22.4 6.4z" fill="#f5b54c"/><path d="M261.146 84.438l-22.4 25.6s6.4 12.8 22.4 19.2l20.267-41.6-20.267-3.2z" fill="#425a6b"/><path d="M262.213 82.305s-9.6 30.933-8.533 48 3.2 37.333 1.067 45.867c-2.133 9.6-8.533 34.133-9.6 36.267 0 0-14.933 11.733-14.933 27.733 0 0 5.333 1.067 18.133 5.333s27.733 4.267 27.733 4.267 22.4 4.267 26.667 6.4c4.267 1.067 11.733-4.267 11.733-4.267s-5.333-17.067-4.267-24.533 12.8-44.8 12.8-55.467v-9.6s10.667-20.267 11.733-37.333-3.2-35.2-16-45.867c-11.733-9.6-17.067-12.8-17.067-12.8h-2.133s-11.733 0-17.067 1.067h-2.133c-3.2 0-6.4 5.333-6.4 5.333s-1.067 4.267-6.4 5.333c-4.267 1.067-5.333 4.267-5.333 4.267z" fill="#f26f5a"/><path d="M323.013 134.571l-1.067 6.4s-2.133 3.2-1.067 6.4c0 0 6.4 7.467 8.533 11.733s9.6 2.133 9.6 2.133l5.333-7.467s5.333-2.133 6.4-4.267h3.2c1.067 1.067 2.133 2.133 3.2 2.133s1.067 4.267-3.2 3.2v1.067h6.4s1.067 4.267 1.067 6.4c0 0 2.133 0 2.133 3.2 0 2.133-2.133 3.2-2.133 3.2s1.067 1.067 1.067 3.2-1.067 2.133-1.067 2.133 1.067 1.067 1.067 3.2-2.133 3.2-2.133 3.2-7.467 1.067-9.6 2.133-9.6-2.133-9.6-2.133-11.733 0-16 1.067c-5.333 1.067-16 0-23.467-5.333 0 0-6.4-1.067-7.467-6.4 0 0-8.533-10.667-7.467-34.133v-1.067c1.067-16 22.4-21.333 30.933-8.533l5.335 8.534z" fill="#ffd15c"/><path d="M334.746 102.571c0 3.2-1.067 6.4-3.2 8.533-6.4 6.4-7.467 12.8-7.467 12.8s0 11.733-3.2 17.067c-5.333-10.667-24.533-13.867-35.2-6.4 0 0-4.267-18.133 2.133-30.933 5.333-7.467 6.4-21.333 7.467-28.8 0-3.2 1.067-8.533 5.333-9.6h3.2s5.333 2.133 17.067 12.8c6.4 6.4 11.734 14.933 13.867 24.533z" fill="#425a6b"/><path d="M305.946 274.305l-7.467 49.066-14.933-13.866z" fill="#344a5e"/></svg>