<svg xmlns="http://www.w3.org/2000/svg" viewBox="0 0 512 512">
    <path d="M118.117 63.561l-5.236 33.38-31.779 3.635-63.561-38.887c3.532-12.004 9.434-22.949 17.154-32.299a90.49 90.49 0 0 1 5.827-6.409A91.04 91.04 0 0 1 79.24 0l38.877 63.561z"
          fill="#eaeaea"/>
    <g fill="#fec755">
        <path d="M109.106 399.216s113.047-59.608 182.887-59.608l20.04 20.04c-69.84 0-182.887 59.608-182.887 59.608l-20.04-20.04z"/>
        <path d="M113.384 403.494s59.608-113.047 59.608-182.887l-20.04-20.04c0 69.84-59.608 182.887-59.608 182.887l20.04 20.04z"/>
    </g>
    <path d="M129.15 419.255l-31.061 31.051-11.21 11.221-22.4 22.4-11.221 11.221-12.374 12.363a15.31 15.31 0 0 1-21.659 0l-14.14-14.14a15.31 15.31 0 0 1 0-21.659l12.374-12.374 11.221-11.21 22.4-22.4 11.21-11.221 31.051-31.051 35.809 35.799z"
          fill="#38abf9"/>
    <path d="M18.545 485.173l88.258-88.258-13.46-13.46-88.258 88.258c-5.981 5.981-5.981 15.678 0 21.658l13.46 13.46a15.32 15.32 0 0 1 0-21.658z"
          fill="#2ba0e2"/>
    <path d="M64.479 483.927l-11.221 11.22-35.799-35.809 11.221-11.211zm33.61-33.621l-11.211 11.221-35.799-35.799 11.21-11.221z"
          fill="#3b4c5b"/>
    <path d="M496.091 186.993c-2.684-2.684-7.037-2.684-9.721 0l-2.448 2.448a6.76 6.76 0 0 0-.624-.729l-23.695-23.695 24.371-24.371.837.837c1.342 1.342 3.102 2.014 4.861 2.014s3.519-.672 4.861-2.014c2.685-2.685 2.685-7.037 0-9.721l-.837-.837 2.018-2.018c2.685-2.685 2.685-7.037 0-9.721s-7.037-2.684-9.721 0l-2.018 2.018-24.378-24.378 18.353-18.353c2.685-2.685 2.685-7.037 0-9.721s-7.037-2.684-9.721 0l-18.353 18.353-24.377-24.377 18.361-18.361c2.685-2.685 2.685-7.037 0-9.721s-7.037-2.684-9.721 0l-18.362 18.361-24.378-24.378 2.025-2.025c2.685-2.685 2.685-7.037 0-9.721s-7.037-2.684-9.721 0l-2.025 2.025-7.4-7.4c-2.684-2.684-7.037-2.684-9.721 0s-2.685 7.037 0 9.721l7.4 7.4L347.586 53l-23.694-23.694a6.76 6.76 0 0 0-.729-.624l2.448-2.448c2.685-2.685 2.685-7.037 0-9.721s-7.037-2.684-9.721 0l-36.496 36.495-3.183-3.183c-2.684-2.684-7.037-2.684-9.721 0s-2.685 7.037 0 9.721l3.183 3.183-24.378 24.378-7.017-7.017c-2.685-2.685-7.037-2.685-9.721 0s-2.685 7.037 0 9.721l7.017 7.017-24.378 24.378-2.394-2.394c-2.684-2.684-7.037-2.684-9.721 0s-2.685 7.037 0 9.721l2.394 2.394-24.962 24.961c-2.336-.687-4.965-.11-6.809 1.732a6.87 6.87 0 0 0-1.732 6.809l-1.09 1.09c-2.685 2.685-2.685 7.037 0 9.721 1.342 1.342 3.102 2.014 4.861 2.014s3.519-.672 4.861-2.014l.499-.499 24.372 24.37-24.378 24.378-7.4-7.4c-2.684-2.684-7.037-2.684-9.721 0s-2.685 7.037 0 9.721l7.4 7.4-2.649 2.649c-2.685 2.685-2.685 7.037 0 9.721 1.342 1.342 3.102 2.014 4.861 2.014s3.519-.672 4.861-2.014l2.649-2.649 24.378 24.378-15.154 15.154c-2.685 2.685-2.685 7.037 0 9.721 1.342 1.342 3.102 2.014 4.861 2.014s3.519-.672 4.861-2.014l15.154-15.154 24.378 24.379-15.147 15.147c-2.685 2.685-2.685 7.037 0 9.721 1.342 1.342 3.102 2.014 4.861 2.014s3.519-.672 4.861-2.014l15.147-15.147 24.378 24.378-2.642 2.642c-2.685 2.685-2.685 7.037 0 9.721 1.342 1.342 3.102 2.014 4.861 2.014s3.519-.672 4.861-2.014l3.673-3.673c.28.034.561.058.842.058 1.76 0 3.519-.672 4.861-2.014 1.557-1.557 2.205-3.675 1.955-5.704l25.409-25.409 24.371 24.371-.499.499c-2.685 2.685-2.685 7.037 0 9.721 1.342 1.342 3.102 2.014 4.861 2.014s3.519-.672 4.861-2.014l1.09-1.09c.635.187 1.291.28 1.947.28 1.76 0 3.519-.672 4.861-2.014a6.87 6.87 0 0 0 1.732-6.808l24.961-24.961 2.394 2.394c1.342 1.342 3.102 2.014 4.861 2.014s3.519-.672 4.861-2.014c2.685-2.685 2.685-7.037 0-9.721l-2.394-2.394 24.378-24.378 7.017 7.017c1.342 1.342 3.102 2.014 4.861 2.014s3.519-.672 4.861-2.014c2.685-2.685 2.685-7.037 0-9.721l-7.017-7.017 24.378-24.378 3.183 3.183c1.342 1.342 3.102 2.014 4.861 2.014s3.519-.672 4.861-2.014c2.685-2.685 2.685-7.037 0-9.721l-3.183-3.183 36.496-36.496a6.88 6.88 0 0 0-.008-9.719zm-21.839-56.067l-24.371 24.371-24.378-24.378 24.371-24.371 24.378 24.378zm-151.047 34.092l24.378-24.378 24.378 24.378-24.378 24.377-24.378-24.377zm14.656 34.1l-24.378 24.378-24.378-24.378 24.378-24.378 24.378 24.378zm19.443-68.199l24.378-24.378 24.378 24.378-24.378 24.378-24.378-24.378zm-9.722-9.721L323.204 96.82l24.378-24.378L371.96 96.82l-24.378 24.378zm-9.721 9.721l-24.378 24.378-24.378-24.378 24.378-24.378 24.378 24.378zm-34.099 34.099l-24.378 24.378-24.378-24.378 24.378-24.378 24.378 24.378zm-34.1 34.1l-24.371 24.371-24.378-24.378 24.371-24.371 24.378 24.378zm9.721 9.722l24.378 24.378-24.371 24.371-24.378-24.378 24.371-24.371zm34.1 34.1l24.378 24.378-24.371 24.371-24.378-24.378 24.371-24.371zm9.721-9.722l24.378-24.378 24.378 24.378-24.378 24.378-24.378-24.378zm34.101-34.1l24.378-24.377 24.378 24.378-24.378 24.378-24.378-24.379zm34.098-34.1l24.378-24.378 24.378 24.378-24.378 24.378-24.378-24.378zm48.749-68.191l-24.371 24.371-24.378-24.378 24.371-24.371 24.378 24.378zm-58.477-58.478l24.378 24.378-24.371 24.371-24.378-24.378 24.371-24.371zm-68.132-.052a6.76 6.76 0 0 0 .624.729l23.694 23.694-24.378 24.378-24.371-24.371 24.431-24.43zm-34.152 34.151l24.371 24.371-24.378 24.378-24.371-24.371 24.378-24.378zm-34.1 34.1l24.371 24.371-24.378 24.378-24.371-24.371 24.378-24.378zm-58.47 58.47l24.371-24.371 24.371 24.371-24.371 24.371-24.371-24.371zm-.008 68.192l24.378-24.378 24.378 24.378-24.378 24.378-24.378-24.378zm34.1 34.1l24.378-24.378 24.378 24.378-24.378 24.378-24.378-24.378zm58.478 58.478l-24.378-24.377 24.378-24.378 24.378 24.378-24.378 24.377zm68.191-.008l-24.371-24.371 24.371-24.371 24.371 24.371-24.371 24.371zm34.093-34.092l-24.371-24.371 24.378-24.378 24.371 24.371-24.378 24.378zm34.099-34.099l-24.371-24.371 24.378-24.378 24.371 24.371-24.378 24.378zm9.73-58.471l24.378-24.378 23.695 23.695c.23.231.476.433.729.624l-24.43 24.43-24.372-24.371z"
          fill="#ccc"/>
    <path d="M468.432 44.163C404.11-20.159 290.917-11.254 215.617 64.057c-75.31 75.3-84.215 188.493-19.893 252.815s177.515 55.417 252.825-19.883c75.3-75.311 84.205-188.503 19.883-252.826zm-37.83 234.879c-65.295 65.284-162.603 74.21-216.931 19.883-54.317-54.317-45.402-151.636 19.893-216.92 65.284-65.295 162.603-74.21 216.92-19.893 54.329 54.327 45.403 151.635-19.882 216.93z"
          fill="#fec755"/>
    <path d="M142.336 110.517c-1.269 3.12-3.173 6.039-5.711 8.566-5.108 5.108-11.803 7.667-18.508 7.667-6.694 0-13.389-2.559-18.508-7.667l-18.508-18.508 37.015-37.015 18.508 18.508c7.7 7.689 9.604 18.973 5.712 28.449z"
          fill="#e21e43"/>
    <path d="M142.336 110.517c-3.173 1.301-6.557 1.957-9.941 1.957-6.694 0-13.389-2.559-18.508-7.667L95.379 86.299l22.738-22.738 18.508 18.508c7.699 7.688 9.603 18.972 5.711 28.448z"
          fill="#fc3552"/>
    <path d="M95.379 86.299l-14.277 14.277-63.561-38.887c3.532-12.004 9.434-22.949 17.154-32.299l60.684 56.909z"
          fill="#ccc"/>
</svg>