<svg xmlns="http://www.w3.org/2000/svg" viewBox="0 0 512 512"><circle cx="256" cy="256" r="256" fill="#dc691d"/><path d="M194.207 467.862c-.945 0-1.907-.159-2.851-.477-18.008-6.135-35.972-15.113-54.934-27.436-4.087-2.657-5.244-8.121-2.586-12.209a8.83 8.83 0 0 1 12.217-2.586c17.717 11.52 34.392 19.862 50.997 25.529 4.617 1.571 7.08 6.594 5.508 11.211-1.245 3.655-4.679 5.968-8.351 5.968zm-97.095-61.793c-2.586 0-5.146-1.13-6.894-3.31-1.977-2.463-4.158-5.058-6.409-7.733-7.495-8.925-15.987-19.032-21.071-29.131-2.198-4.352-.441-9.657 3.911-11.855 4.352-2.207 9.657-.441 11.855 3.911 4.158 8.263 11.953 17.532 18.82 25.715l6.665 8.051a8.83 8.83 0 0 1-1.359 12.412c-1.634 1.304-3.584 1.94-5.518 1.94z" fill="#ef9665"/><g fill="#c5411e"><path d="M71.512 79.448h-.794a258.22 258.22 0 0 0-15.351 17.638l16.146.018c116.824 0 211.862 112.861 211.862 251.586 0 61.775-14.998 116.454-43.414 158.19l-2.895 4.343c6.258.468 12.56.777 18.934.777.521 0 1.042-.035 1.562-.035 28.363-43.961 43.467-100.193 43.467-163.275.001-148.463-102.956-269.242-229.517-269.242zM200.969 5.994c-9.26 2.03-18.317 4.573-27.171 7.565l8.289 3.452c118.131 47.545 197.5 195.028 197.5 366.989 0 27.763-4.334 54.987-8.536 81.311l-4.829 21.786c7.044-3.363 13.895-7.062 20.559-11.034l1.51-6.815.185-1.156c4.317-27.012 8.766-54.934 8.766-84.092-.001-173.188-78.39-322.957-196.273-378.006zM498.547 336.49c-39.495-25.167-65.995-99.955-65.995-186.421 0-24.991 2.489-49.214 7.203-72.218-4.988-5.146-10.187-10.063-15.59-14.777l-.68 5.844c-5.703 25.741-8.589 53.036-8.589 81.152 0 94.12 29.352 173.285 74.77 201.693a8.81 8.81 0 0 0 1.024.547l2.127.962c2.233-5.438 4.273-10.982 6.135-16.605l-.405-.177z"/><path d="M504.444 194.207c-1.474-5.959-3.178-11.829-5.067-17.62-201.437-1.095-365.021 52.674-486.347 160.044 1.995 6.003 4.158 11.926 6.577 17.726l3.919-3.478C142.38 245.089 303.74 192.415 503.172 194.207h1.272z"/></g></svg>