<svg xmlns="http://www.w3.org/2000/svg" height="512" width="512"><path d="M238.584 385.588c-3.092-7.698-33.625-86.408-34.084-190.654-.037-8.259-6.742-14.934-15-14.934h-80a15 15 0 0 0-15 15.067c.48 106.149-33.066 190.467-33.401 191.296-1.875 4.625-1.328 9.878 1.461 14.016S70.01 407 75 407h150 .02c8.284 0 15-6.716 15-15 0-2.294-.515-4.468-1.436-6.412z" fill="#453d81"/><path d="M238.584 385.588c-3.092-7.698-33.625-86.408-34.084-190.654-.037-8.259-6.742-14.934-15-14.934H150v227h75 .02c8.284 0 15-6.716 15-15 0-2.294-.515-4.468-1.436-6.412z" fill="#2e2654"/><path d="M230 75c-1.67 0-10.434.325-19 6.75-5.379 4.034-11.516 11.12-14.374 23.25H165V75c0-8.284-6.716-15-15-15s-15 6.716-15 15v30h-31.626C100.516 92.87 94.379 85.784 89 81.75 80.434 75.325 71.67 75 70 75c-8.284 0-15 6.716-15 15 0 8.065 6.365 14.644 14.346 14.986C72.785 105.538 75 111.407 75 120v50c0 8.284 6.716 15 15 15h120c8.284 0 15-6.716 15-15v-50c0-8.593 2.215-14.462 5.654-15.014C238.635 104.644 245 98.065 245 90c0-8.284-6.716-15-15-15z" fill="#453d81"/><path d="M230 75c-1.67 0-10.434.325-19 6.75-5.379 4.034-11.516 11.12-14.374 23.25H165V75c0-8.284-6.716-15-15-15v125h60c8.284 0 15-6.716 15-15v-50c0-8.593 2.215-14.462 5.654-15.014C238.635 104.644 245 98.065 245 90c0-8.284-6.716-15-15-15z" fill="#2e2654"/><path d="M60 437c-16.542 0-30-13.458-30-30s13.458-30 30-30h180c16.542 0 30 13.458 30 30s-13.458 30-30 30v10H60z" fill="#5e54ac"/><g fill="#453d81"><path d="m240 377h-90v70h90v-10c16.542 0 30-13.458 30-30s-13.458-30-30-30z"/><path d="M255 437H45c-24.813 0-45 20.187-45 45v15c0 8.284 6.716 15 15 15h248.333L300 482c0-24.813-20.187-45-45-45z"/></g><path d="M255 437H150v75h113.333L300 482c0-24.813-20.187-45-45-45z" fill="#2e2654"/><path d="M230 195H70c-8.284 0-15-6.716-15-15s6.716-15 15-15h160c8.284 0 15 6.716 15 15s-6.716 15-15 15z" fill="#5e54ac"/><path d="m230 165h-80v30h80c8.284 0 15-6.716 15-15s-6.716-15-15-15z" fill="#453d81"/><circle cx="150" cy="45" fill="#5e54ac" r="45"/><path d="M150 0v90c24.813 0 45-20.187 45-45S174.813 0 150 0z" fill="#453d81"/><path d="M462.717 438.574l-.027-.013c-2.716-1.683-36.69-24.702-36.69-117.895 0-8.284-6.716-15-15-15h-60c-8.284 0-15 6.716-15 15 0 93.386-34.001 116.244-36.662 117.881-6.488 2.786-9.801 9.583-8.422 16.536C292.31 462.106 298.841 467 306 467h150 .02a14.99 14.99 0 0 0 1.277-.054c6.626-.548 12.459-5.254 13.777-11.837 1.388-6.934-1.898-13.725-8.357-16.535z" fill="#ffb454"/><path d="M462.717 438.574l-.027-.013c-2.716-1.683-36.69-24.702-36.69-117.895 0-8.284-6.716-15-15-15h-30.002V467H456h.02a14.99 14.99 0 0 0 1.277-.054c6.626-.548 12.459-5.254 13.777-11.837 1.388-6.934-1.898-13.725-8.357-16.535z" fill="#ff8659"/><path d="M429.199 137.835c-12.271-17.901-29.839-28.168-48.199-28.168s-35.928 10.267-48.199 28.168c-11.264 16.433-17.468 38.007-17.468 60.748 0 25.454 6.351 34.818 12.663 47.084l1.972 6.817a15 15 0 0 0 13.362 8.183h75.34a15 15 0 0 0 13.362-8.183c.411-.806.892-6.124 1.305-6.926 6.28-12.189 13.331-21.488 13.331-46.974-.001-22.742-6.205-44.315-17.469-60.749z" fill="#ffb454"/><path d="M429.199 137.835c-12.271-17.901-29.839-28.168-48.199-28.168l-.002 151h37.672a15 15 0 0 0 13.362-8.183c.411-.806.892-6.124 1.305-6.926 6.28-12.189 13.331-21.488 13.331-46.974-.001-22.742-6.205-44.315-17.469-60.749z" fill="#ff8659"/><path d="M467 437H295c-24.813 0-45 20.187-45 45v15c0 8.284 6.716 15 15 15h232c8.284 0 15-6.716 15-15v-15c0-24.813-20.187-45-45-45z" fill="#ffed6a"/><path d="M467 437h-86.002v75H497c8.284 0 15-6.716 15-15v-15c0-24.813-20.187-45-45-45z" fill="#ffb454"/><path d="M466 290.667h-10.843c-6.006-3.813-21.612-16.47-21.821-45.109l-105.34.109c0 29.31-15.195 41.435-21.004 45H296c-8.284 0-15 6.716-15 15s6.716 15 15 15h170c8.284 0 15-6.716 15-15s-6.716-15-15-15z" fill="#ffed6a"/><path d="M466 290.667h-10.843c-6.006-3.813-21.612-16.47-21.821-45.109l-52.338.054v75.055H466c8.284 0 15-6.716 15-15s-6.716-15-15-15z" fill="#ffb454"/><circle cx="381" cy="94.667" fill="#ffed6a" r="45"/><path d="M381 49.667l-.002 90h.001c24.814 0 45.001-20.187 45.001-45s-20.187-45-45-45z" fill="#ffb454"/></svg>