<svg xmlns="http://www.w3.org/2000/svg" height="512" viewBox="0 0 60 60" width="512"><path d="M58.65 10l-9.14 9.14L46 15.58l9.14-9.23a1 1 0 0 1 1.47 0l2.09 2.16a1 1 0 0 1-.05 1.49z" fill="#783e22"/><path d="M39 2v3h-1a1 1 0 0 0-1 1h-6a1 1 0 0 0-1-1h-2a1 1 0 0 0-1 1h-6a1 1 0 0 0-1-1h-1V2a1 1 0 0 1 1-1h18a1 1 0 0 1 1 1z" fill="#fec108"/><circle cx="9" cy="20" fill="#f44335" r="8"/><path d="M41 6v10.31l-4 4V6a1 1 0 0 1 1-1h2a1 1 0 0 1 1 1zm0 25.87V58a1 1 0 0 1-1 1h-2a1 1 0 0 1-1-1V35.87zM31 6v20.28l-4 4V6a1 1 0 0 1 1-1h2a1 1 0 0 1 1 1zm0 35.87V58a1 1 0 0 1-1 1h-2a1 1 0 0 1-1-1V45.87zM21 6v30.26l-4 4V6a1 1 0 0 1 1-1h2a1 1 0 0 1 1 1zm0 45.87V58a1 1 0 0 1-1 1h-2a1 1 0 0 1-1-1v-2.13z" fill="#ffdc00"/><g fill="#c81e1e"><path d="M14.6 14.4L3.4 25.6a7.83 7.83 0 0 1-1.95-3l10.09-10.14a8 8 0 0 1 3.06 1.94z"/><path d="M16.55 17.43L6.44 27.54a8.2 8.2 0 0 1-3-1.94L14.6 14.4a8.1 8.1 0 0 1 1.95 3.03z"/></g><path d="M50.42 22.45L14.17 58.7a1 1 0 0 1-1.42 0l-6.44-6.38a1 1 0 0 1-.26-.93c.12-.55-1.84 1.71 36.59-36.72a1 1 0 0 1 1.16-.19l2.2 1.1 3.53 3.53 1.1 2.18a1 1 0 0 1-.21 1.16z" fill="#f57c00"/><path d="M48.71 20.07L12.46 56.32a1 1 0 0 1-1.42 0l-5-4.93a1 1 0 0 1 .26-.48l36.34-36.24a1 1 0 0 1 1.16-.19l2.2 1.1 2.48 2.48.43.86a1 1 0 0 1-.2 1.15z" fill="#ff9801"/><path d="M57.29 5.6a2 2 0 0 0-2.83 0l-8.68 8.76-1.54-.77a2 2 0 0 0-2.24.33V6a2 2 0 0 0-2-2V2a2 2 0 0 0-2-2H20a2 2 0 0 0-2 2v2a2 2 0 0 0-2 2v8.5A9.09 9.09 0 0 0 9 11a9.24 9.24 0 0 0-9 9 9.24 9.24 0 0 0 9 9 9.09 9.09 0 0 0 7-3.5v14.33L5.6 50.2a2 2 0 0 0 0 2.8l6.45 6.38a2 2 0 0 0 2.83 0L16 58.26A2 2 0 0 0 18 60h2a2 2 0 0 0 2-2v-5.72l4-4V58a2 2 0 0 0 2 2h2a2 2 0 0 0 2-2V42.28l4-4V58a2 2 0 0 0 2 2h2a2 2 0 0 0 2-2V32.28l9.13-9.12a2 2 0 0 0 .37-2.31l-.77-1.54 8.68-8.68a2 2 0 0 0 0-2.82zM40 58h-2V36.28l2-2zM28 27.86V6h2v19.87zM32 7h4v12.88l-4 4zm8-1v9.89l-2 2V6zm-2-2a2 2 0 0 0-1.72 1h-4.56A2 2 0 0 0 30 4V2h8zM20 2h8v2a2 2 0 0 0-1.72 1h-4.56A2 2 0 0 0 20 4zm0 4v29.84l-2 2V6zM3.45 24.14a7.15 7.15 0 0 1-.82-1.35l9.16-9.16a7.15 7.15 0 0 1 1.35.82zm11.1-8.28a7.41 7.41 0 0 1 .82 1.34L6.2 26.37a7.41 7.41 0 0 1-1.34-.82zM9.56 13L2 20.56A7.12 7.12 0 0 1 9.56 13zM8.43 27L16 19.43A7.12 7.12 0 0 1 8.43 27zM22 7h4v22.85l-4 4zm-2 51h-2v-1.72l2-2zm10 0h-2V46.28l2-2zm-16.54 0c-.06-.1.85.84-6.45-6.38 22.23-22.18-32.86 32.77 36.34-36.24l2 1 3.3 3.3 1 2L13.46 58zm36.06-40.3l-2.13-2.13L55.87 7 58 9.21z" fill="#000"/></svg>