<svg xmlns="http://www.w3.org/2000/svg" height="682.667" viewBox="-4 0 512 512.027" width="682.667">
    <path d="M503.336 416.57c0 52.762-112.641 95.457-251.66 95.457S.012 469.332.012 416.57c0-26.297 27.945-50.16 73.332-67.43a209.57 209.57 0 0 0 23.082 28.031c1.563 1.648 3.125 3.211 4.773 4.684 3.125 3.125 6.336 5.988 9.633 8.766.172.176.258.348.434.434 2.949 2.52 5.898 4.949 9.023 7.203a18.65 18.65 0 0 0 2.258 1.648c3.125 2.43 6.336 4.688 9.633 6.855a12.43 12.43 0 0 0 1.473.867c2.605 1.824 5.207 3.387 7.898 4.949 2.168 1.387 4.426 2.602 6.684 3.816 3.035 1.738 6.16 3.297 9.371 4.773 2.516 1.301 5.207 2.43 7.809 3.645 3.992 1.734 8.07 3.297 12.152 4.773l6.68 2.258c3.125 1.039 6.25 1.996 9.461 2.863a1.22 1.22 0 0 0 .605.172.32.32 0 0 0 .262.086c2.082.609 4.25 1.129 6.422 1.563.148.176.387.242.605.176a60.27 60.27 0 0 0 6.598 1.473 12.8 12.8 0 0 0 2.516.523l7.117 1.215a193.39 193.39 0 0 0 20.133 2.254c1.301.086 2.602.176 3.816.176 3.297.172 6.594.258 9.895.258s6.594-.086 9.891-.258c1.215 0 2.516-.09 3.82-.176 6.746-.398 13.465-1.152 20.133-2.254 2.43-.348 4.773-.781 7.113-1.215.855-.09 1.699-.266 2.52-.523 2.223-.367 4.426-.859 6.594-1.473.219.066.457 0 .609-.176 2.168-.434 4.336-.953 6.418-1.562a.32.32 0 0 0 .262-.086c.215-.004.422-.062.609-.172 3.211-.867 6.332-1.824 9.457-2.863 2.258-.695 4.426-1.477 6.684-2.258 4.078-1.477 8.156-3.039 12.148-4.773 2.602-1.215 5.293-2.344 7.809-3.645 3.211-1.477 6.336-3.035 9.375-4.773 2.254-1.215 4.512-2.43 6.68-3.816 2.691-1.562 5.293-3.125 7.898-4.949.508-.254 1.004-.543 1.477-.867 3.297-2.168 6.508-4.426 9.629-6.855a18.65 18.65 0 0 0 2.258-1.648c3.125-2.254 6.074-4.684 9.023-7.203.176-.086.262-.258.438-.434 3.297-2.777 6.508-5.641 9.629-8.766 1.652-1.473 3.211-3.035 4.773-4.684 8.492-8.66 16.215-18.039 23.086-28.031 45.383 17.27 73.328 41.133 73.328 67.43zm0 0"
          fill="#71c285"/>
    <path d="M442.59 416.57c0-33.551-85.477-60.746-190.914-60.746S60.758 383.02 60.758 416.57s85.477 60.746 190.918 60.746S442.59 450.117 442.59 416.57zm0 0"
          fill="#4c8056"/>
    <path d="M459.598 287.527l-2.168 6.77c-1.391 4.512-3.039 8.938-4.859 13.277-.867 2.168-1.824 4.25-2.777 6.422s-1.91 4.25-2.949 6.336c-1.562 3.383-3.301 6.68-5.121 9.977-1.129 2.086-2.344 4.168-3.559 6.25-2.516 4.25-5.207 8.504-8.156 12.582-6.871 9.992-14.594 19.371-23.086 28.031l-4.773 4.684h-63.695l-43.391-78.102 43.391-78.102h86.781zm0 0"
          fill="#fff"/>
    <path d="M402.148 381.855c-3.121 3.039-6.332 5.988-9.629 8.766-.176.176-.262.348-.437.434-2.949 2.52-5.898 4.949-9.023 7.203a18.65 18.65 0 0 1-2.258 1.648c-3.121 2.43-6.332 4.688-9.629 6.855-.473.324-.969.613-1.477.867a84.72 84.72 0 0 1-7.898 4.949c-2.168 1.387-4.426 2.602-6.68 3.816l-9.375 4.773c-2.602 1.301-5.117 2.43-7.809 3.645-3.992 1.734-8.07 3.297-12.148 4.773-2.172.867-4.426 1.563-6.684 2.258-3.125 1.039-6.246 1.996-9.457 2.863a1.25 1.25 0 0 1-.609.172l29.418-53.023zm-207.835 53.024a1.22 1.22 0 0 1-.605-.172l-9.461-2.863-6.68-2.258c-4.082-1.477-8.16-3.039-12.152-4.773l-7.809-3.645c-3.125-1.477-6.25-3.125-9.371-4.773-2.258-1.215-4.516-2.43-6.684-3.816a85.67 85.67 0 0 1-7.898-4.949 12.43 12.43 0 0 1-1.473-.867c-3.297-2.168-6.508-4.426-9.633-6.855a18.65 18.65 0 0 1-2.258-1.648c-3.125-2.254-6.074-4.684-9.023-7.203-.176-.086-.262-.258-.434-.434-3.297-2.777-6.508-5.727-9.633-8.766h63.695zm0 0"
          fill="#35495e"/>
    <path d="M208.285 303.754l-43.391 78.102h-63.695l-4.773-4.684a209.57 209.57 0 0 1-23.082-28.031c-2.953-4.078-5.641-8.332-8.16-12.582l-3.559-6.25c-1.82-3.297-3.555-6.594-5.117-9.977-1.043-2.086-1.996-4.168-2.953-6.336l-2.773-6.422c-1.824-4.34-3.473-8.766-4.863-13.277-.777-2.258-1.473-4.512-2.168-6.77l34.363-61.875h86.781zm0 0"
          fill="#fff"/>
    <path d="M78.113 225.652L43.75 287.527a216.64 216.64 0 0 1 0-123.746zm0 0" fill="#35495e"/>
    <path d="M208.285 147.551l-43.391 78.102H78.113L43.75 163.781c10.621-35.906 30.422-68.418 57.449-94.332h63.695zm0 0"
          fill="#fff"/>
    <path d="M338.453 225.652l-43.391 78.102h-86.777l-43.391-78.102 43.391-78.102h86.777zm0 0" fill="#35495e"/>
    <path d="M338.453 381.855l-29.418 53.023a.32.32 0 0 1-.262.086l-6.418 1.563a.58.58 0 0 1-.609.176c-2.168.605-4.34 1.039-6.594 1.473a12.81 12.81 0 0 1-2.52.523l-7.113 1.215a193.55 193.55 0 0 1-20.133 2.254l-3.82.176a189.82 189.82 0 0 1-9.891.258c-3.297 0-6.598-.086-9.895-.258-1.301 0-2.602-.09-3.816-.176a193.39 193.39 0 0 1-20.133-2.254l-7.117-1.215a12.8 12.8 0 0 1-2.516-.523l-6.598-1.473c-.219.066-.457 0-.605-.176l-6.422-1.562a.32.32 0 0 1-.262-.086l-29.418-53.023 43.391-78.102h86.777zm121.145-218.074l-34.363 61.871h-86.781l-43.391-78.102 43.391-78.102h63.695c27.027 25.914 46.828 58.426 57.449 94.332zm0 0"
          fill="#fff"/>
    <path d="M402.148 69.449h-63.695l-29.418-53.02a214.49 214.49 0 0 1 93.113 53.02zM194.313 16.43l-29.418 53.02H101.2a214.51 214.51 0 0 1 93.113-53.02zm0 0"
          fill="#35495e"/>
    <path d="M338.453 69.449l-43.391 78.102h-86.777l-43.391-78.102 29.418-53.02c37.547-10.301 77.176-10.301 114.723 0zm0 0"
          fill="#fff"/>
    <path d="M468.625 225.652a214.27 214.27 0 0 1-9.027 61.875l-34.363-61.875 34.363-61.871c6.02 20.07 9.059 40.918 9.027 61.871zm0 0"
          fill="#35495e"/>
    <path d="M477.129 217.148v-.937l-.34-5.82c-.184-3.187-.449-6.387-.867-10.051-.348-3.055-.711-6.168-1.187-8.973-.469-3.273-1.035-6.637-1.738-9.633-1.297-6.863-2.977-13.648-5.023-20.324l-.043-.156-2.168-6.777a148.57 148.57 0 0 0-5.105-13.953c-.738-1.824-1.52-3.594-2.309-5.391l-.582-1.301c-1.012-2.301-2.02-4.504-3.02-6.48-1.648-3.57-3.469-7.047-5.371-10.484a218.95 218.95 0 0 0-3.738-6.57c-2.457-4.07-4.992-8.148-7.664-11.977-1.797-2.602-3.602-5.145-5.469-7.617a207.92 207.92 0 0 0-19.246-22.504c-1.734-1.828-3.473-3.566-5.016-4.937-3.141-3.062-6.379-6.074-9.691-8.852a14.44 14.44 0 0 0-.809-.727c-3.125-2.664-6.266-5.207-9.762-7.812-.715-.582-1.465-1.121-2.238-1.621-3.18-2.449-6.434-4.738-9.711-6.891-.582-.402-1.184-.77-1.809-1.102-2.484-1.746-5.062-3.352-7.723-4.816-2.266-1.457-4.633-2.742-7.547-4.34l-9.305-4.738c-2.48-1.242-4.895-2.332-8.227-3.844-4.164-1.805-8.418-3.43-12.383-4.859-2.395-.965-4.879-1.734-7.16-2.43a179.77 179.77 0 0 0-9.355-2.855c-.5-.187-1.012-.336-1.535-.441-2.223-.617-4.34-1.156-6.57-1.598l-.328-.07c-2.113-.594-4.258-1.078-6.422-1.449a22.07 22.07 0 0 0-3.586-.781c-2.238-.477-4.562-.867-7.07-1.195-6.965-1.156-13.98-1.945-21.027-2.363-1.406-.094-2.926-.18-3.695-.164-2.32-.191-4.539-.191-6.277-.184a63.04 63.04 0 0 0-8.059 0c-2.328 0-4.566 0-6.164.176-1.5 0-3.02.094-4.336.191a203.18 203.18 0 0 0-21.359 2.387c-2.23.328-4.527.676-6.77 1.152-.941.098-1.871.289-2.773.574-2.492.477-4.895.973-7.293 1.641l-.301.078a90.74 90.74 0 0 0-6.25 1.508c-.484.098-.957.234-1.414.418-3.324.867-6.559 1.883-9.547 2.898-2.496.762-4.98 1.535-7.098 2.395-4.242 1.535-8.496 3.16-13.449 5.32l-7.273 3.41c-3.16 1.492-6.309 3.148-10.031 5.109-2.352 1.277-4.723 2.605-6.492 3.715a94.9 94.9 0 0 0-8.219 5.121c-.594.32-1.176.672-1.734 1.051-3.359 2.203-6.613 4.496-9.789 6.941-.84.551-1.652 1.145-2.43 1.777-3.305 2.398-6.449 4.973-9.547 7.637a15.28 15.28 0 0 0-.781.715c-3.781 3.191-6.898 6.074-9.621 8.773-1.738 1.621-3.332 3.242-4.98 4.895a209.88 209.88 0 0 0-19.344 22.563 207.27 207.27 0 0 0-5.461 7.609c-2.715 3.887-5.25 7.965-7.809 12.148l-3.652 6.414c-1.93 3.469-3.75 6.941-5.297 10.301-1.102 2.203-2.105 4.406-3.121 6.707l-.582 1.301-2.258 5.27a135.23 135.23 0 0 0-4.918 13.426c-.941 2.418-1.738 4.891-2.398 7.402l-.051.18a188.91 188.91 0 0 0-4.965 20.047c-.754 3.273-1.316 6.637-1.734 9.676l-1.285 9.668c-.371 3.203-.641 6.402-.824 9.398-.156 2.004-.25 4.008-.336 6.012v.938l-.176 8.504c0 2.875.086 5.652.176 8.508v.961l.336 5.797a179.93 179.93 0 0 0 .867 10.051c.348 3.055.715 6.168 1.191 8.973.469 3.27 1.031 6.637 1.734 9.633 1.293 6.879 2.965 13.68 5.008 20.375v.156l2.168 6.777a148.57 148.57 0 0 0 5.105 13.953c.734 1.824 1.516 3.594 2.309 5.391l.578 1.301c1.016 2.301 2.023 4.504 3.02 6.484 1.652 3.566 3.473 7.043 5.375 10.48 1.172 2.152 2.418 4.34 3.703 6.508 2.977 5.027 5.781 9.363 8.48 13.078a217.45 217.45 0 0 0 23.934 29.082c1.734 1.828 3.469 3.566 5.016 4.938 3.148 3.063 6.379 6.074 9.703 8.852a10.04 10.04 0 0 0 .797.727c3.125 2.664 6.266 5.207 9.762 7.813.715.578 1.461 1.121 2.23 1.621 3.184 2.449 6.438 4.738 9.719 6.891a19.74 19.74 0 0 0 1.824 1.109c2.477 1.746 5.051 3.348 7.707 4.809 2.262 1.457 4.633 2.742 7.547 4.34 3.16 1.676 6.32 3.332 9.297 4.738 2.488 1.25 4.91 2.344 8.234 3.852 4.164 1.805 8.418 3.43 12.383 4.859 2.395.965 4.879 1.738 7.16 2.43 3.098 1.035 6.188 1.988 9.355 2.855.496.191 1.012.336 1.535.445 2.223.613 4.34 1.152 6.57 1.594l.301.078a62.85 62.85 0 0 0 6.457 1.434 22.07 22.07 0 0 0 3.586.781c2.238.477 4.563.867 7.07 1.195 6.953 1.156 13.961 1.941 20.992 2.363 1.398.094 2.813.137 3.957.172 3.473.191 6.941.277 10.355.277s6.941-.086 9.891-.258c1.5 0 3.02-.098 4.34-.191a204.61 204.61 0 0 0 21.328-2.406c2.23-.328 4.531-.676 6.77-1.152.934-.098 1.855-.289 2.754-.574 2.488-.477 4.891-.973 7.289-1.641l.301-.078c2.102-.422 4.148-.926 6.25-1.508.484-.094.957-.234 1.414-.418 3.324-.867 6.563-1.883 9.547-2.898 2.5-.762 4.98-1.535 7.098-2.395 4.242-1.535 8.496-3.16 13.434-5.312l7.281-3.418c3.156-1.492 6.316-3.148 10.039-5.109 2.352-1.277 4.723-2.605 6.492-3.715 2.82-1.562 5.559-3.27 8.199-5.113a19.28 19.28 0 0 0 1.738-1.059 161.36 161.36 0 0 0 9.797-6.941 27.62 27.62 0 0 0 2.422-1.734c3.305-2.395 6.445-4.973 9.543-7.637.27-.234.539-.469.781-.711a177.94 177.94 0 0 0 9.441-8.609c.113-.098.211-.207.313-.312l.07-.062c1.684-1.527 3.305-3.121 4.809-4.711 8.793-8.965 16.797-18.676 23.914-29.02 2.82-3.887 5.625-8.227 8.629-13.305l3.652-6.41c1.926-3.473 3.75-6.945 5.293-10.301 1.102-2.207 2.109-4.41 3.125-6.711l.582-1.301 2.254-5.266a143.43 143.43 0 0 0 5.059-13.809c.816-2.352 1.539-4.695 2.258-7.02l.051-.184a187.19 187.19 0 0 0 4.965-20.043c.754-3.273 1.32-6.641 1.734-9.676l1.285-9.668c.375-3.203.645-6.406.816-9.398.164-1.996.25-3.992.348-5.988v-.965l.172-8.504c0-2.871.105-5.719.02-8.574zm-41.969 8.504l21.219-38.18c.426 2.148.867 4.336 1.18 6.594.453 2.723.766 5.527 1.137 8.73a148.1 148.1 0 0 1 .754 8.824c.156 1.789.234 3.574.332 6.074l.164 7.992c0 2.699-.078 5.305-.184 8.68l-.32 5.555c-.164 2.871-.414 5.754-.797 9.094-.32 2.734-.633 5.535-1.129 8.496-.297 2.031-.719 4.191-1.145 6.352zm-16.609-124.613a226.38 226.38 0 0 1 5.121 7.141c2.5 3.574 4.816 7.309 6.996 10.926l3.469 6.074c1.734 3.117 3.359 6.23 4.957 9.66.98 1.961 1.875 3.922 2.766 5.961l.59 1.328 2.137 4.945c1.813 4.34 3.305 8.426 4.652 12.75.336.996.641 2.012.961 3.012l-30.078 54.141h-76.555l-21.695-39.051-16.879-30.375 16.871-30.371 21.695-39.051h55.043c.703.695 1.398 1.32 2.145 2.109 6.418 6.504 12.371 13.453 17.805 20.801zM289.953 295.078h-76.559l-21.695-39.051-16.875-30.375 16.867-30.371 21.695-39.051h76.559l21.695 39.051 16.887 30.371-16.871 30.375zm45.031-260.34c2.332 1.059 4.555 2.047 7 3.281 2.945 1.387 5.867 2.934 9.227 4.703 1.969 1.066 3.965 2.125 6.371 3.645 2.441 1.352 4.809 2.84 7.09 4.453a20.4 20.4 0 0 0 1.691 1.016c3.105 2.039 6.125 4.164 9.078 6.453.355.27 1.246.949 1.637 1.164.113.086.738.582.871.66.293.215.563.477.867.695h-35.25L327.371 31.59c2.457.938 4.957 1.934 7.613 3.148zM203.945 22.961c1.945-.547 3.879-.918 6.727-1.516a5.47 5.47 0 0 1 .867-.199c.352-.035.703-.09 1.051-.168 1.977-.441 4.027-.734 6.68-1.125 6.383-1.059 12.816-1.781 19.273-2.164 1.027-.066 2.117-.145 3.941-.18l6.074-.164c1.023-.062 2.137-.062 3.117-.062s2.098 0 3.73.086c1.805 0 3.602 0 6.16.176 1.102 0 2.195.078 3.266.156a189.35 189.35 0 0 1 19.906 2.254c1.977.289 4.027.582 6.004 1.023.348.078.699.133 1.051.168.586.098 1.164.234 1.734.406 2.023.391 3.957.762 5.902 1.309l.277.07a7.83 7.83 0 0 0 .988.262c.867.172 1.738.426 2.605.633l25.227 45.523-7.012 12.629-31.562 56.797h-76.559l-31.559-56.809-7.012-12.617 25.25-45.516c.867-.207 1.738-.461 2.605-.633a7.22 7.22 0 0 0 .988-.262zm-77.234 36.023c.391-.215.766-.457 1.121-.73 2.949-2.289 5.969-4.414 9.676-6.82a8.57 8.57 0 0 0 1.094-.648 81.47 81.47 0 0 1 7.594-4.746c1.898-1.227 3.895-2.285 6.281-3.578 2.941-1.543 5.867-3.09 8.973-4.562 2.281-1.148 4.504-2.137 7.387-3.473 2.262-.98 4.684-1.855 7.055-2.77l-16.105 29.117h-35.312c.391-.297.738-.582 1.145-.867zM54.215 159.562c1.25-4.043 2.742-8.121 4.609-12.594.66-1.629 1.371-3.207 2.082-4.824l.59-1.328c.867-2.039 1.789-4 2.883-6.195 1.484-3.191 3.113-6.309 4.867-9.469 1.094-2.012 2.266-4.023 3.367-5.934 2.246-3.73 4.566-7.465 7.105-11.09a216.08 216.08 0 0 1 5.105-7.145 194.47 194.47 0 0 1 17.746-20.723l2.176-2.133h55.039l21.691 39.051 16.879 30.371-16.867 30.375-21.695 39.051H83.227l-30.129-54.23c.32-.988.668-2.02 1.117-3.184zm-7.246 104.273c-.426-2.152-.867-4.34-1.18-6.594-.449-2.727-.762-5.527-1.137-8.73-.328-2.871-.582-5.754-.754-8.824-.148-1.738-.234-3.566-.332-6.074l-.164-7.961c0-2.699.078-5.301.184-8.676l.32-5.57c.164-2.875.418-5.754.797-9.098.324-2.73.637-5.535 1.129-8.496.297-2.027.723-4.191 1.145-6.352l21.211 38.191zm33.41 80.203c-2.5-3.473-5.023-7.352-7.695-11.871l-3.473-6.074c-1.734-3.117-3.359-6.23-4.953-9.66-.98-1.961-1.875-3.922-2.77-5.961l-.59-1.328-2.137-4.945a141.18 141.18 0 0 1-4.648-12.75c-.34-.996-.645-2.012-.965-3.012l30.078-54.105h76.559l21.691 39.051 16.879 30.371-16.867 30.375-21.695 39.051h-55.055c-.695-.695-1.387-1.32-2.117-2.082-8.18-8.355-15.625-17.402-22.242-27.043zm87.988 72.574l-7.023-3.297c-2.941-1.383-5.863-2.926-9.215-4.695-1.969-1.07-3.965-2.129-6.367-3.645a76.4 76.4 0 0 1-7.082-4.453c-.367-.25-1.305-.816-1.738-1.016-3.105-2.039-6.125-4.164-9.074-6.457-.34-.258-1.285-.961-1.66-1.18-.113-.078-.719-.562-.867-.641-.293-.219-.562-.477-.867-.695h35.277l16.191 29.191-7.574-3.113zm131.035 11.73c-1.941.547-3.879.922-6.723 1.52a5.52 5.52 0 0 1-.871.199 9.41 9.41 0 0 0-1.047.164c-1.98.445-4.027.738-6.684 1.129a184.55 184.55 0 0 1-19.273 2.16c-1.023.07-2.117.148-3.687.156a177.02 177.02 0 0 1-19.316 0c-1.105 0-2.199-.078-3.266-.156-6.672-.398-13.316-1.152-19.906-2.254-1.98-.289-4.027-.582-6.004-1.023-.348-.078-.699-.133-1.051-.168a14.02 14.02 0 0 1-1.738-.406c-2.02-.391-3.957-.762-5.898-1.309l-.277-.07a7.89 7.89 0 0 0-.992-.262c-.867-.172-1.734-.426-2.602-.633l-25.242-45.535 7.012-12.625 31.559-56.797h76.559l31.563 56.805 7.012 12.617-25.254 45.52c-.867.207-1.734.457-2.602.633a7.26 7.26 0 0 0-.992.258zm77.176-36.004c-.383.211-.742.445-1.086.711-2.949 2.293-5.973 4.418-9.625 6.789-.398.199-.785.43-1.152.684-2.441 1.719-4.973 3.305-7.586 4.746-1.898 1.223-3.895 2.281-6.281 3.566-2.934 1.555-5.859 3.098-8.984 4.574-2.289 1.145-4.512 2.145-7.375 3.473-2.266.98-4.687 1.855-7.055 2.766l16.133-29.113h35.309c-.391.297-.738.582-1.145.867zm72.563-100.594c-1.25 4.043-2.742 8.121-4.605 12.59-.66 1.633-1.371 3.211-2.086 4.824l-.59 1.328a112.77 112.77 0 0 1-2.879 6.199c-1.484 3.191-3.117 6.309-4.871 9.465-1.09 2.016-2.262 4.027-3.398 5.988-2.707 4.566-5.207 8.461-7.812 12.09-6.621 9.617-14.062 18.645-22.242 26.98l-1.926 1.969h-55.164l-21.695-39.051-16.879-30.375 16.871-30.371 21.695-39.051h76.555l30.063 54.117-1.043 3.297zm0 0"
          fill="#2c3e50"/>
</svg>