<svg xmlns="http://www.w3.org/2000/svg" height="512" viewBox="0 0 64 64" width="512"><path d="M10 10v1.93.07H6V8h4zm16-2v4h-4.03a4.36 4.36 0 0 0 .03-.51V8z" fill="#aab2bd"/><path d="M6 12v5c0 .55-.45 1-1 1H3c-.55 0-1-.45-1-1V3c0-.55.45-1 1-1h2c.55 0 1 .45 1 1v5zm24-9v14c0 .55-.45 1-1 1h-2c-.55 0-1-.45-1-1v-5-4-5c0-.55.45-1 1-1h2c.55 0 1 .45 1 1z" fill="#969faa"/><path d="M35.71 56.15c-1.05.52-1.71 1.59-1.71 2.76v-7.06c0-1.87-.44-3.72-1.28-5.4l-1.21-3.28c-.34-1.31-.51-2.67-.51-4.03 0-2.07.4-4.13 1.17-6.06a3.13 3.13 0 0 1 1.12-1.43 3.2 3.2 0 0 1 1.95-.65H36v2.14c0 1.06.43 2.03 1.13 2.73S38.8 37 39.86 37c1.33 0 2.57-.69 3.27-1.81l2.4-3.84c.43-.69 1.01-1.24 1.69-1.64.04-.03.09-.06.13-.08.73-.41 1.56-.63 2.42-.63 1.46 0 2.89.4 4.14 1.15.87.52 1.66 1.14 2.37 1.85h-1.67a8.6 8.6 0 0 0-7.16 3.83C46.5 37.25 46 38.91 46 40.61c0 1.36.36 2.67 1.01 3.82s1.59 2.13 2.76 2.83L51 48l-7 6-2.61-.87c-.26-.09-.53-.13-.81-.13-.97 0-1.85.55-2.29 1.42L38 55z" fill="#4fc1e9"/><path d="M56 14.82c0 2.42-.81 4.68-2.2 6.5s-3.36 3.2-5.69 3.83L45 26v-4l2.38-2.38a2.12 2.12 0 0 0-1.5-3.62H45v-.4a5 5 0 0 0-3.42-4.74l-1.97-.66C41.22 7.59 44.06 6 47.14 6h.04C52.05 6 56 9.95 56 14.82z" fill="#b27946"/><g fill="#f0d0b4"><path d="M18 8v2c0 1.1-.9 2-2 2h-4c-1.1 0-2-.9-2-2V8c0-1.1.9-2 2-2h4c1.1 0 2 .9 2 2zm42.97 37.46c.67 1 1.03 2.19 1.03 3.39 0 2.49-1.57 4.7-3.91 5.53L45 59l-4.29 2.15c-1.13.56-2.36.85-3.62.85A3.09 3.09 0 0 1 34 58.91c0-1.17.66-2.24 1.71-2.76L38 55l.29-.58c.44-.87 1.32-1.42 2.29-1.42.28 0 .55.04.81.13L44 54l7-6-1.23-.74c-1.17-.7-2.11-1.68-2.76-2.83S46 41.97 46 40.61c0-1.7.5-3.36 1.45-4.78A8.6 8.6 0 0 1 54.61 32h1.67a12.22 12.22 0 0 1 2.33 3.22c.91 1.83 1.39 3.84 1.39 5.89V44z"/><path d="M32.68 31.34l.6.3.01.01a3.13 3.13 0 0 0-1.12 1.43C31.4 35.01 31 37.07 31 39.14c0 1.36.17 2.72.51 4.03h-.01l-1.34.44c-.77.26-1.57.39-2.39.39a7.44 7.44 0 0 1-3.76-1.02L24 43l-5.58-.47c-3.63-.3-6.42-3.33-6.42-6.97V16l-.54-.54A5.02 5.02 0 0 1 10 12v-.07V10c0 1.1.9 2 2 2h4c1.1 0 2-.9 2-2V8 7c0-1.66 1.34-3 3-3 .55 0 1 .45 1 1v3 3.49a4.36 4.36 0 0 1-.03.51c-.08.8-.36 1.58-.81 2.26L20 16v13.76c0 .71.08 1.42.24 2.12l1.08-.54a12.72 12.72 0 0 1 11.36 0zm14.54-1.63c-.68.4-1.26.95-1.69 1.64l-2.4 3.84c-.7 1.12-1.94 1.81-3.27 1.81-1.06 0-2.03-.43-2.73-1.13S36 34.2 36 33.14V31l1.59-1.59A4.83 4.83 0 0 0 39 26v-.01c-2.78-.08-5-2.35-5-5.15 0-.56.09-1.11.26-1.63L35 17l-.51-.51a1.68 1.68 0 0 1 .78-2.81l1.07-.27c1.06-.26 1.97-.95 2.51-1.89l.6-1.06.16-.26 1.97.66A5 5 0 0 1 45 15.6v.4h.88a2.12 2.12 0 0 1 1.5 3.62L45 22v4 .12c0 1.53.87 2.91 2.22 3.58z"/></g><path d="M61.804 44.902L61 43.697v-2.591a14.24 14.24 0 0 0-1.494-6.332 13.36 13.36 0 0 0-5.08-5.485A9.05 9.05 0 0 0 49.771 28c-.888 0-1.737.202-2.512.558a2.96 2.96 0 0 1-1.187-1.814l2.296-.626C53.45 24.731 57 20.085 57 14.817 57 9.404 52.596 5 47.141 5a9.88 9.88 0 0 0-8.56 4.967l-.603 1.055a3.01 3.01 0 0 1-1.877 1.422l-1.077.27A2.67 2.67 0 0 0 33 15.307c0 .714.278 1.386.783 1.891l.072.073-.54 1.619c-.209.631-.315 1.286-.315 1.948 0 2.961 2.1 5.44 4.889 6.028-.162.69-.505 1.336-1.01 1.841L35.586 30h-.346c-.718 0-1.399.182-2.004.5l-.105-.053c-3.731-1.866-8.339-1.883-12.095-.071-.015-.204-.036-.408-.036-.612V16.303l.992-1.488c.373-.559.634-1.174.802-1.814H25v4c0 1.103.897 2 2 2h2c1.103 0 2-.897 2-2V3c0-1.103-.897-2-2-2h-2c-1.103 0-2 .897-2 2v4h-2V5c0-1.103-.897-2-2-2-1.609 0-3 .955-3.634 2.329A2.99 2.99 0 0 0 16 5h-4c-1.302 0-2.402.839-2.816 2H7V3c0-1.103-.897-2-2-2H3c-1.103 0-2 .897-2 2v14c0 1.103.897 2 2 2h2c1.103 0 2-.897 2-2v-4h2.099a5.95 5.95 0 0 0 1.659 3.172l.242.242v19.145c0 4.128 3.223 7.63 7.336 7.973l5.426.452c1.224.651 2.599 1.016 4.012 1.016.921 0 1.831-.147 2.703-.438l.36-.12a17.2 17.2 0 0 0 .991 2.454C32.596 48.426 33 50.14 33 51.854v7.057c0 2.255 1.835 4.09 4.09 4.09a9.12 9.12 0 0 0 4.065-.96l4.236-2.118 13.032-4.599c2.738-.968 4.577-3.567 4.577-6.47 0-1.412-.414-2.779-1.196-3.952zM27 3h2l.002 14H27zm-2 6v2h-2V9zm22.183-2A7.83 7.83 0 0 1 55 14.817c0 4.368-2.943 8.222-7.157 9.371L46 24.691v-2.277l2.086-2.086A3.14 3.14 0 0 0 49 18.121c0-1.69-1.351-3.071-3.03-3.12a5.99 5.99 0 0 0-4.072-5.089l-.656-.219C42.718 8.011 44.865 7 47.183 7zM37 31.414l1.293-1.293c.847-.847 1.407-1.949 1.614-3.121H42v-2h-2.838A4.17 4.17 0 0 1 35 20.838a4.18 4.18 0 0 1 .213-1.316l.932-2.792-.947-.946a.68.68 0 0 1-.198-.477.67.67 0 0 1 .51-.653l1.076-.27a5.02 5.02 0 0 0 3.129-2.37l.346-.606 1.204.401C42.9 12.354 44 13.879 44 15.604V17h1.879c.618 0 1.121.503 1.121 1.121a1.13 1.13 0 0 1-.328.793L44 21.586v4.531c0 1.401.576 2.694 1.555 3.62a6.01 6.01 0 0 0-.871 1.082l-2.398 3.837C41.76 35.497 40.854 36 39.86 36 38.283 36 37 34.717 37 33.14zM11 8a1 1 0 0 1 1-1h4a1 1 0 0 1 1 1v2a1 1 0 0 1-1 1h-4a1 1 0 0 1-1-1zm-8 9V3h2l.002 14zm4-8h2v1 1H7zm22.846 33.664a6.54 6.54 0 0 1-2.072.336 6.58 6.58 0 0 1-5.239-2.619L21.8 39.4l-1.6 1.2.735.981c.046.061.099.114.147.173l-2.58-.215A6.04 6.04 0 0 1 13 35.559V15.586l-.828-.828a3.96 3.96 0 0 1-1.053-1.905c.28.087.572.147.881.147h4c1.654 0 3-1.346 3-3V7c0-1.103.897-2 2-2v6.486a3.98 3.98 0 0 1-.672 2.219L19 15.697v14.066c0 1.616.382 3.235 1.105 4.684l1.789-.895c-.185-.37-.332-.758-.461-1.152l.33-.165c3.035-1.518 6.746-1.592 9.863-.259-.148.23-.283.471-.388.732A17.29 17.29 0 0 0 30 39.145c0 1.126.118 2.251.337 3.356zM32 39.145c0-1.959.369-3.874 1.097-5.692A2.28 2.28 0 0 1 35 32.037v1.104a4.87 4.87 0 0 0 4.86 4.86c1.688 0 3.229-.854 4.121-2.284l2.397-3.836a3.98 3.98 0 0 1 3.393-1.88 7.06 7.06 0 0 1 3.625 1.004l.099.06c-2.786.322-5.304 1.847-6.882 4.214A9.57 9.57 0 0 0 45 40.605c0 3.061 1.63 5.938 4.254 7.513l.042.025-5.517 4.729-2.066-.688A3.54 3.54 0 0 0 40.584 52c-1.358 0-2.58.755-3.187 1.969l-.143.286-1.994.996c-.091.046-.174.102-.261.154v-3.551c0-2.022-.478-4.047-1.382-5.853A15.43 15.43 0 0 1 32 39.145zm25.758 14.292l-13.091 4.62-4.407 2.194a7.11 7.11 0 0 1-3.17.749c-1.152 0-2.09-.937-2.09-2.09a2.08 2.08 0 0 1 1.155-1.87l2.59-1.294.441-.882c.267-.533.802-.864 1.398-.864a1.53 1.53 0 0 1 .494.08l3.143 1.048 8.483-7.271-2.421-1.453A6.8 6.8 0 0 1 47 40.605a7.58 7.58 0 0 1 1.277-4.219A7.59 7.59 0 0 1 54.605 33h1.259c.737.792 1.362 1.688 1.853 2.669A12.22 12.22 0 0 1 59 41.107v3.196l1.14 1.709c.563.844.86 1.827.86 2.843a4.87 4.87 0 0 1-3.242 4.582z"/></svg>