<svg id="Capa_1" enable-background="new 0 0 497 497" height="512" viewBox="0 0 497 497" width="512" xmlns="http://www.w3.org/2000/svg"><g><path d="m135.026 359.28c14.463-40.398 9.188-79.504 2.806-121.936l-1.41-9.375 175.09 175.091-10.109-1.592c-17.088-2.691-34.274-3.561-51.347-2.688-3.366.172-13.504-2.199-16.86-1.892-21.789 1.994-36.546 9.432-57.386 16.928z" fill="#ffc250"/><path d="m272.476 364.02c-8.4 10.78-15.89 22.38-22.42 34.76-25.23 1.29-50.2 6.39-74.25 15.04l-39.686-54.54c14.46-40.4 8.096-79.5 1.716-121.94l-1.41-9.37z" fill="#ebb044"/><path d="m93.962 466.734-22.34-21.882c-9.247-9.257-8.813-24.383.95-33.094l121.292-109.054 42.757 42.802-94.999 100.632-7.495 14.502-7.514 8.44c-.47.528-.959 1.029-1.465 1.503-8.867 8.304-22.425 4.921-31.186-3.849z" fill="#ffc250"/><path d="m125.143 470.579c-8.867 8.302-22.903 8.224-31.657-.544l-24.042-24.07c-9.249-9.249-8.811-24.381.948-33.093l8.438-7.528 13.43-6.304 12.101-16.475 89.506-79.86 15.592 15.606-117.244 104.353c-4.295 3.823-4.489 10.471-.425 14.538z" fill="#ebb044"/><path d="m134.131 460.644-55.303-55.302 13.432-6.302 12.101-16.474 52.517 52.517z" fill="#c86f5c"/><path d="m119.861 398.065-25.562 22.748-15.471-15.471 25.533-22.776z" fill="#ba5d4f"/><path d="m294.132 397c7.065 7.065 17.023 10.422 26.925 9.093 5.759-.773 10.909 3.561 16.609 2.234 32.643-7.598 63.955-24.282 89.724-50.051 71.024-71.024 73.49-183.711 5.508-251.694-23.746-23.746-54.856-32.191-85.83-38.827-57.702-12.363-119.648-1.881-165.864 44.335-30.648 30.648-48.403 68.035-53.337 107.011-1.246 9.842 2.105 19.711 9.119 26.726z" fill="#c86f5c"/><path d="m442.387 116.892c-2.998-3.536-6.159-6.979-9.49-10.31-24.084-24.084-53.783-39.315-85.25-45.799-93.983-19.444-193.124 41.254-216.676 140.843l-.001-.001c-.869 3.682-2.321 11.07-3.145 17.798-1.05 8.453 1.409 16.906 6.616 23.527.033.042.063.086.096.128.128.162.267.316.399.476.647.785 1.324 1.55 2.05 2.277l81.556 81.55 74.999 74.999c7.071 7.071 17.027 10.423 26.927 9.093 5.763-.771 11.505-1.817 17.197-3.154l-52.297-52.297c-1.908-1.908-1.953-4.981-.117-6.958 5.686-6.127 11.704-11.945 18.064-17.425.91-.784 2.042-1.251 3.232-1.41 14.384-1.915 27.706-9.53 36.599-21.178 27.93-36.6 42.7-80.58 42.7-127.18 0-33.755-7.895-65.621-21.864-93.719-1.879-3.779 1.435-8.029 5.558-7.127 26.346 5.767 51.386 17.701 72.847 35.867z" fill="#ba5d4f"/><path d="m153.223 386.649c-5.299-11.209-18.197-19.879-18.197-19.879-16.759-25.29-37.898-47.538-62.441-65.664l-7.626-5.632h247.616l-8.274 6.023c-24.577 17.89-45.391 39.968-61.931 65.129 0 0-12.838 8.753-18.145 20.023z" fill="#ffc250"/><path d="m242.376 366.63c-6.78 10.31-12.84 21.14-18.15 32.41h-71c-5.3-11.21-11.39-21.99-18.2-32.27l4.06-71.3h99.16z" fill="#ebb044"/><path d="m204.298 494.309-29.562.924c-13.084-.007-23.473-11.01-22.729-24.073l9.584-164.172 27.176-6.126 30.156 6.872 6.953 119.726-5.105 20.04 7.089 14.12.655 11.281c.041.706.049 1.406.027 2.099-.399 12.141-11.848 19.315-24.244 19.309z" fill="#ffd064"/><path d="m228.535 475c-.4 12.14-10.38 22.01-22.77 22l-34.02-.02c-13.08 0-23.47-11.01-22.73-24.07l.643-11.29 7.963-17.08-6.017-17.08 6.821-119.76 9.153-10.923 12.907 10.933-9.115 156.693c-.334 5.74 4.23 10.579 9.98 10.581z" fill="#ffc250"/><path d="m227.866 461.62h-78.21l5.753-16.163-3.803-17.997h74.27z" fill="#fc8c5b"/><path d="m173.526 427.46-1.99 34.16h-21.88l1.95-34.16z" fill="#e27650"/><path d="m296.175 305.372c9.991 0 19.406-4.667 25.469-12.609 3.525-4.618 10.057-7.09 13.15-12.059 17.709-28.455 28.053-62.393 28.053-98.836-.001-100.443-77.939-181.868-174.081-181.868-34.663 0-62.301 12.814-88.081 30.734-45.723 31.782-77.872 84.952-77.872 149.181 0 43.343 6.597 79.292 30.668 110.34 6.078 7.84 15.426 12.45 25.347 12.45z" fill="#fc8c5b"/><path d="m81.99 280.7c-7.388 0-14.17-4.074-17.657-10.588-13.919-26-21.648-55.909-21.648-88.242 0-95.52 70.48-173.84 160.08-181.29-4.62-.38-9.29-.58-14-.58-96.14 0-174.08 81.43-174.08 181.87 0 36.817 10.021 70.492 27.792 98.83h-.002c2.284 3.325 1.211 2.613 10.362 14.809 6.027 7.736 15.342 12.191 25.148 12.191h28 193.4c10 0 19.41-4.67 25.47-12.61 3.53-4.62 6.85-9.42 9.93-14.39z" fill="#e27650"/><g><path d="m469.767 374.564c0-35.021-28.39-63.411-63.411-63.411-37.109.645-60.375 27.039-59.592 62.567 0 35.021 24.571 62.567 59.592 62.567 20.562 0 38.837-8.098 50.424-23.267 8.147-10.667 12.987-23.997 12.987-38.456z" fill="#faf8f8"/><path d="m460.055 408.29c-11.22 17.84-31.08 29.69-53.7 29.69-35.02 0-63.41-28.4-63.41-63.42 0-22.63 11.86-42.5 29.7-53.71-6.15 9.77-9.7 21.32-9.7 33.71 0 35.02 28.39 63.42 63.41 63.42 12.381 0 23.94-3.55 33.7-9.69z" fill="#f0e9e6"/></g></g></svg>