<svg xmlns="http://www.w3.org/2000/svg" height="512" viewBox="0 0 60 60" width="512" fill-rule="evenodd">
    <path d="M34.77 42.45c-1.563.367-3.164.551-4.77.55a20.22 20.22 0 0 1-4.7-.54A20.76 20.76 0 0 1 15.31 37h-.01l-.03-.03v-.01a21 21 0 0 1-5.52-20.53 16.4 16.4 0 0 1 1.73-.27h.01A19.01 19.01 0 0 1 14 16l.98.03a21.89 21.89 0 0 1 7.47 1.72c2.862 1.192 5.436 2.982 7.55 5.25a20.92 20.92 0 0 0-1 5 20.9 20.9 0 0 0 2.86 10.58c.724 1.239 1.572 2.402 2.53 3.47a7.18 7.18 0 0 0 .38.4z"
          fill="#ff9801"/>
    <path d="M34.39 42.05c-.958-1.068-1.806-2.231-2.53-3.47A20.9 20.9 0 0 1 29 28a20.92 20.92 0 0 1 1-5c-2.114-2.268-4.688-4.058-7.55-5.25a21.89 21.89 0 0 0-7.47-1.72L14 16a19.85 19.85 0 0 0-1.588.07c2.423.167 4.801.734 7.038 1.68 2.862 1.192 5.436 2.982 7.55 5.25a20.92 20.92 0 0 0-1 5 20.9 20.9 0 0 0 2.86 10.58c.724 1.239 1.572 2.402 2.53 3.47a7.18 7.18 0 0 0 .38.4c-1.076.25-2.171.414-3.273.491l1.5.059c1.606.001 3.207-.183 4.77-.55l-.377-.4z"
          fill="#f57c00"/>
    <path d="M51 22a20.2 20.2 0 0 1-.33 3.67 21 21 0 0 1-15.9 16.78 7.18 7.18 0 0 1-.38-.4c-.958-1.068-1.806-2.231-2.53-3.47A20.9 20.9 0 0 1 29 28a20.92 20.92 0 0 1 1-5c3.151-.391 6.161-1.541 8.77-3.35a21.21 21.21 0 0 0 5.84-6.13c.852-1.336 1.556-2.761 2.1-4.25A20.89 20.89 0 0 1 51 22z"
          fill="#ffdc00"/>
    <path d="M50.03 15.66c-.731-2.305-1.854-4.467-3.32-6.39-.353.939-.769 1.853-1.246 2.735A20.6 20.6 0 0 1 48 22a20.2 20.2 0 0 1-.33 3.67c-1.31 7.392-6.471 13.52-13.533 16.068.087.1.164.213.253.312a7.18 7.18 0 0 0 .38.4c8.182-1.905 14.438-8.507 15.9-16.78A20.2 20.2 0 0 0 51 22a21.07 21.07 0 0 0-.97-6.34z"
          fill="#fec108"/>
    <path d="M46.71 9.27c-.544 1.489-1.248 2.914-2.1 4.25a21.21 21.21 0 0 1-5.84 6.13C36.161 21.459 33.151 22.609 30 23c-2.114-2.268-4.688-4.058-7.55-5.25a21.89 21.89 0 0 0-7.47-1.72L14 16a19.01 19.01 0 0 0-2.51.16h-.01a16.4 16.4 0 0 0-1.73.27 20.68 20.68 0 0 1 3.1-6.53v-.01a21 21 0 0 1 33.86-.62z"
          fill="#02a9f4"/>
    <path d="M30 1l-1.514.057A20.98 20.98 0 0 1 43.71 9.27c-.544 1.489-1.248 2.914-2.1 4.25a21.21 21.21 0 0 1-5.84 6.13 19.59 19.59 0 0 1-6.27 2.868L30 23c3.151-.391 6.161-1.541 8.77-3.35a21.21 21.21 0 0 0 5.84-6.13c.852-1.336 1.556-2.761 2.1-4.25A20.98 20.98 0 0 0 30 1z"
          fill="#0377bc"/>
    <path d="M59 39v4H30a20.99 20.99 0 0 0 14.69-6H57c1.103.003 1.997.897 2 2z" fill="#cfd8dc"/>
    <path d="M57 37h-3c1.103.003 1.997.897 2 2v4h3v-4c-.003-1.103-.897-1.997-2-2z" fill="#9e9e9e"/>
    <path d="M30 43H1v-4c.003-1.103.897-1.997 2-2h12.31a20.76 20.76 0 0 0 9.99 5.46A20.22 20.22 0 0 0 30 43z"
          fill="#cfd8dc"/>
    <path d="M1 43h5v16H1zm53 0h5v16h-5z" fill="#707070"/>
    <path d="M57 36H46.958c7.397-8.95 6.565-22.108-1.901-30.055s-21.65-7.947-30.115 0S5.645 27.05 13.042 36H3a3 3 0 0 0-3 3v20a1 1 0 0 0 1 1h58a1 1 0 0 0 1-1V39a3 3 0 0 0-3-3zm1 3v3H39.148a22.07 22.07 0 0 0 5.928-4H57a1 1 0 0 1 1 1zm-47 5v4H7v-4zm6 0v4h-4v-4zm6 0v4h-4v-4zM11.219 15.19c.537-1.488 1.248-2.908 2.119-4.229 1.727-.24 16.554-1.951 24.019 8.4-2.137 1.318-4.518 2.19-7 2.565C26.025 17.561 20.15 15.073 14 15c-.93 0-1.859.064-2.781.19zm35.691-3.82c.843 1.332 1.524 2.761 2.03 4.254-4.288 9.131-14.789 13.555-18.756 14.941A20.07 20.07 0 0 1 30 28a13.58 13.58 0 0 1 .657-3.579l.143-.538c7.127-1.21 13.174-5.907 16.11-12.513zM50 22c-.007 1.091-.104 2.179-.289 3.254a37.3 37.3 0 0 1-17.353 12.135c-.812-1.526-1.421-3.151-1.813-4.834 3.669-1.25 13.916-5.4 19.127-14.063.212 1.157.322 2.331.328 3.508zM35.084 41.32a19.82 19.82 0 0 1-1.666-2.171c5.712-1.94 10.88-5.214 15.075-9.549-2.396 5.785-7.356 10.119-13.409 11.72zM47 44v4h-4v-4zm6 9h-4v-3h4zm-6 0h-4v-3h4zM7 50h4v3H7zm6 0h4v3h-4zm6 0h4v3h-4zm6 0h4v3h-4zm-1.866-30.831a20.6 20.6 0 0 1 5.754 4.121 15.75 15.75 0 0 0-.485 8.881v.014.007a21.87 21.87 0 0 0 4.459 9.578A19.12 19.12 0 0 1 26 41.6a34.08 34.08 0 0 1-2.866-22.431zM31 44h4v4h-4zm-2 0v4h-4v-4zm2 6h4v3h-4zm6 0h4v3h-4zm4-2h-4v-4h4zM16.153 36.4c-2.795-9.7-1.644-16.066-.5-19.319a21.17 21.17 0 0 1 5.61 1.283 36 36 0 0 0 2.183 22.513 20.02 20.02 0 0 1-7.293-4.477zM7 55h4v3H7zm6 0h4v3h-4zm6 0h4v3h-4zm6 0h4v3h-4zm6 0h4v3h-4zm6 0h4v3h-4zm6 0h4v3h-4zm6 0h4v3h-4zm4-7h-4v-4h4zM45.555 9.456a21.71 21.71 0 0 1-1.1 2.347 27.45 27.45 0 0 0-18.986-9.266 19.84 19.84 0 0 1 20.086 6.919zM20.059 4.67c8.778-1.174 17.552 2.186 23.3 8.923A20.23 20.23 0 0 1 39 18.219c-6.854-9.568-18.982-9.8-23.958-9.447a20.12 20.12 0 0 1 5.017-4.102zm-9.476 12.622a20.52 20.52 0 0 1 2.986-.279c-.988 3.12-1.829 8.387-.338 15.849-3.015-4.594-3.975-10.238-2.648-15.57zM2 39a1 1 0 0 1 1-1h11.924a22.07 22.07 0 0 0 5.928 4H2zm0 5h3v14H2zm56 14h-3V44h3z"
          fill="#000"/>
</svg>