<svg height="512" viewBox="0 0 60 60" width="512" xmlns="http://www.w3.org/2000/svg">
    <g id="Page-1" fill="none" fill-rule="evenodd">
        <g id="001---Volley-Ball" transform="translate(0 -1)">
            <path id="Shape"
                  d="m34.77 43.45c-1.5634754.3666358-3.1641122.5511956-4.77.55-1.5823995.0045298-3.1598606-.1767104-4.7-.54-3.7736922-.8536216-7.233788-2.744725-9.99-5.46h-.01l-.03-.03v-.01c-5.42383776-5.3377126-7.53565642-13.1919947-5.52-20.53.5714474-.1207416 1.1489369-.21087 1.73-.27h.01c.8322168-.1086884 1.6707185-.1621388 2.51-.16.33 0 .65.01.98.03 2.5717817.1295224 5.1005421.7117805 7.47 1.72 2.8620075 1.1920291 5.436175 2.9820132 7.55 5.25-.5359426 1.6196619-.8717694 3.2987957-1 5-.0047764 3.7182874.9825031 7.3705313 2.86 10.58.724127 1.2390455 1.5717783 2.4016344 2.53 3.47.12.14.25.27.38.4z"
                  fill="#ff9801"/>
            <path id="Shape"
                  d="m34.39 43.05c-.9582217-1.0683656-1.805873-2.2309545-2.53-3.47-1.8774969-3.2094687-2.8647764-6.8617126-2.86-10.58.1282306-1.7012043.4640574-3.3803381 1-5-2.113825-2.2679868-4.6879925-4.0579709-7.55-5.25-2.3694579-1.0082195-4.8982183-1.5904776-7.47-1.72-.33-.02-.65-.03-.98-.03-.536 0-1.063.028-1.588.07 2.4227971.166715 4.8011188.7344303 7.038 1.68 2.8620075 1.1920291 5.436175 2.9820132 7.55 5.25-.5359426 1.6196619-.8717694 3.2987957-1 5-.0047764 3.7182874.9825031 7.3705313 2.86 10.58.724127 1.2390455 1.5717783 2.4016344 2.53 3.47.12.14.25.27.38.4-1.0762471.2502345-2.1707022.4144195-3.273.491.5.035 1 .059 1.5.059 1.6058878.0011956 3.2065246-.1833642 4.77-.55-.127-.13-.257-.26-.377-.4z"
                  fill="#f57c00"/>
            <path id="Shape"
                  d="m51 23c.0020406 1.2308323-.1084188 2.4592753-.33 3.67-1.4675895 8.2696361-7.7213285 14.869494-15.9 16.78-.13-.13-.26-.26-.38-.4-.9582217-1.0683656-1.805873-2.2309545-2.53-3.47-1.8774969-3.2094687-2.8647764-6.8617126-2.86-10.58.1282306-1.7012043.4640574-3.3803381 1-5 3.1512286-.3910159 6.1605925-1.5405449 8.77-3.35 2.3388367-1.6301081 4.325065-3.7149676 5.84-6.13.852248-1.3362093 1.5564014-2.7612816 2.1-4.25 2.7926257 3.6552401 4.3006373 8.1300625 4.29 12.73z"
                  fill="#ffdc00"/>
            <path id="Shape"
                  d="m50.03 16.66c-.730921-2.3050913-1.8540603-4.4667963-3.32-6.39-.3525202.9389964-.7688242 1.8527937-1.246 2.735 1.6790113 3.0627949 2.5516846 6.5022152 2.536 9.995.0020406 1.2308323-.1084188 2.4592753-.33 3.67-1.3101315 7.3920415-6.4713591 13.5200696-13.533 16.068.087.1.164.213.253.312.12.14.25.27.38.4 8.1819632-1.9047663 14.4383191-8.5073858 15.9-16.78.2215812-1.2107247.3320406-2.4391677.33-3.67.0021143-2.1504519-.3250085-4.2885533-.97-6.34z"
                  fill="#fec108"/>
            <path id="Shape"
                  d="m46.71 10.27c-.5435986 1.4887184-1.247752 2.9137907-2.1 4.25-1.514935 2.4150324-3.5011633 4.4998919-5.84 6.13-2.6094075 1.8094551-5.6187714 2.9589841-8.77 3.35-2.113825-2.2679868-4.6879925-4.0579709-7.55-5.25-2.3694579-1.0082195-4.8982183-1.5904776-7.47-1.72-.33-.02-.65-.03-.98-.03-.8392815-.0021388-1.6777832.0513116-2.51.16h-.01c-.5810631.05913-1.1585526.1492584-1.73.27.6419933-2.341768 1.6913506-4.5521882 3.1-6.53v-.01c3.8566163-5.46456666 10.085637-8.76520328 16.7729373-8.88765237 6.6873002-.12244909 13.0329787 2.9479361 17.0870627 8.26765237z"
                  fill="#02a9f4"/>
            <path id="Shape"
                  d="m30 2c-.509 0-1.013.022-1.514.057 6.019722.420625 11.5667779 3.41313487 15.224 8.213-.5435986 1.4887184-1.247752 2.9137907-2.1 4.25-1.514935 2.4150324-3.5011633 4.4998919-5.84 6.13-1.904006 1.3191675-4.0268787 2.290204-6.27 2.868.161.164.342.314.5.482 3.1512286-.3910159 6.1605925-1.5405449 8.77-3.35 2.3388367-1.6301081 4.325065-3.7149676 5.84-6.13.852248-1.3362093 1.5564014-2.7612816 2.1-4.25-3.9716501-5.21641007-10.1537127-8.27599463-16.71-8.27z"
                  fill="#0377bc"/>
            <path id="Shape"
                  d="m59 40v4h-29c5.4930897-.000961 10.7669626-2.1550275 14.69-6h12.31c1.1032019.0032948 1.9967052.8967981 2 2z"
                  fill="#cfd8dc"/>
            <path id="Shape"
                  d="m57 38h-3c1.1032019.0032948 1.9967052.8967981 2 2v4h3v-4c-.0032948-1.1032019-.8967981-1.9967052-2-2z"
                  fill="#9e9e9e"/>
            <path id="Shape"
                  d="m30 44h-29v-4c.0032948-1.1032019.89679813-1.9967052 2-2h12.31c2.756212 2.715275 6.2163078 4.6063784 9.99 5.46 1.5401394.3632896 3.1176005.5445298 4.7.54z"
                  fill="#cfd8dc"/>
            <path id="Rectangle-path" d="m1 44h5v16h-5z" fill="#707070"/>
            <path id="Rectangle-path" d="m54 44h5v16h-5z" fill="#707070"/>
            <path id="Shape"
                  d="m57 37h-10.042c7.396964-8.9501103 6.5649333-22.1078754-1.900522-30.05492628-8.4654552-7.94705089-21.6495008-7.94705089-30.114956 0-8.46545526 7.94705088-9.29748597 21.10481598-1.900522 30.05492628h-10.042c-1.65685425 0-3 1.3431458-3 3v20c0 .5522847.44771525 1 1 1h58c.5522847 0 1-.4477153 1-1v-20c0-1.6568542-1.3431458-3-3-3zm1 3v3h-18.852c2.1803243-1.0021826 4.1826064-2.3532501 5.928-4h11.924c.5522847 0 1 .4477153 1 1zm-47 5v4h-4v-4zm6 0v4h-4v-4zm6 0v4h-4v-4zm-11.781-28.81c.5367076-1.4884616 1.248006-2.9080373 2.119-4.229 1.727-.24 16.554-1.951 24.019 8.4-2.1368502 1.3175513-4.5177756 2.1899904-7 2.565-4.3323734-4.3654355-10.2071096-6.8529591-16.357-6.926-.9302312.0003354-1.8593669.0638146-2.781.19zm35.691-3.82c.8429955 1.3324663 1.5244523 2.7605043 2.03 4.254-4.288 9.131-14.789 13.555-18.756 14.941-.1160972-.8501881-.1775566-1.7069459-.184-2.565.0574747-1.2170689.2784574-2.4208698.657-3.579.049-.18.094-.359.143-.538 7.1266035-1.2100345 13.1742631-5.907388 16.11-12.513zm3.09 10.63c-.0072375 1.0907423-.1038946 2.1790549-.289 3.254-4.4906026 5.6364154-10.5178462 9.8512832-17.353 12.135-.8117385-1.5257433-1.4212027-3.1507571-1.813-4.834 3.669-1.25 13.916-5.4 19.127-14.063.2124376 1.1573909.3221977 2.3312886.328 3.508zm-14.916 19.32c-.6046909-.6844169-1.1613509-1.4098123-1.666-2.171 5.7122798-1.9401254 10.8800076-5.2135339 15.075-9.549-2.396282 5.7847895-7.3555675 10.1194026-13.409 11.72zm11.916 2.68v4h-4v-4zm6 9h-4v-3h4zm-6 0h-4v-3h4zm-40-3h4v3h-4zm6 0h4v3h-4zm6 0h4v3h-4zm6 0h4v3h-4zm-1.866-30.831c2.1413787 1.0314307 4.088104 2.4256704 5.754 4.121-1.011426 2.8522806-1.1798058 5.9355404-.485 8.881v.014.007c.6812831 3.5090845 2.2122836 6.7976968 4.459 9.578-2.2788621.3577147-4.6036468.3001202-6.862-.17-3.4802672-6.9329432-4.49128-14.8457231-2.866-22.431zm7.866 24.831h4v4h-4zm-2 0v4h-4v-4zm2 6h4v3h-4zm6 0h4v3h-4zm4-2h-4v-4h4zm-24.847-11.6c-2.795-9.7-1.644-16.066-.5-19.319 1.919678.170343 3.8071095.6019962 5.61 1.283-1.7099194 7.5439752-.9444574 15.4380869 2.183 22.513-2.7252626-.9492536-5.2130899-2.4764719-7.293-4.477zm-9.153 18.6h4v3h-4zm6 0h4v3h-4zm6 0h4v3h-4zm6 0h4v3h-4zm6 0h4v3h-4zm6 0h4v3h-4zm6 0h4v3h-4zm6 0h4v3h-4zm4-7h-4v-4h4zm-7.445-38.544c-.3195914.803545-.6869127 1.587275-1.1 2.347-4.8389954-5.49797397-11.6745706-8.83403419-18.986-9.266 7.4700961-1.7743012 15.2933667.92057132 20.086 6.919zm-25.496-4.786c8.7778512-1.17409393 17.5517967 2.1859883 23.3 8.923-1.2001915 1.7620342-2.6713423 3.3232968-4.359 4.626-6.854-9.568-18.982-9.8-23.958-9.447 1.4396726-1.62946791 3.1339828-3.01477002 5.017-4.102zm-9.476 12.622c.987195-.1657141 1.9851935-.2589632 2.986-.279-.988 3.12-1.829 8.387-.338 15.849-3.0149265-4.5937923-3.97480757-10.2378062-2.648-15.57zm-8.583 21.708c0-.5522847.44771525-1 1-1h11.924c1.7453936 1.6467499 3.7476757 2.9978174 5.928 4h-18.852zm0 5h3v14h-3zm56 14h-3v-14h3z"
                  fill="#000"/>
        </g>
    </g>
</svg>